<svg width="254" height="48" viewBox="0 0 254 48" fill="none" xmlns="http://www.w3.org/2000/svg">
<path d="M162.34 1.2413C162.149 1.07921 161.906 0.993386 161.656 1.0004C160.971 1.0004 160.09 1.46294 159.618 1.72312L159.427 1.81948C158.631 2.20519 157.765 2.4233 156.881 2.46029C155.975 2.4892 155.195 2.5422 154.178 2.64579C148.155 3.26733 145.469 7.88309 142.882 12.3471C141.475 14.7754 140.02 17.2857 138.025 19.2298C137.611 19.6294 137.172 20.002 136.71 20.3452C134.645 21.8846 132.053 22.9711 130.027 23.7468C128.083 24.4888 125.965 25.1561 123.915 25.8017C122.041 26.3919 120.268 26.9484 118.639 27.5555C117.905 27.8277 117.281 28.0373 116.729 28.2204C115.247 28.7022 114.175 29.0708 112.614 30.1476C112.005 30.5644 111.393 31.0149 110.976 31.3522C109.735 32.3418 108.637 33.4987 107.714 34.7899C106.919 35.9823 106.001 37.0877 104.975 38.0879C104.648 38.4107 104.06 38.5697 103.185 38.5697C102.157 38.5697 100.914 38.3577 99.5934 38.1337C98.2732 37.9097 96.8326 37.6519 95.628 37.6519C94.6476 37.6519 93.9008 37.8109 93.3394 38.1337C93.3394 38.1337 92.3999 38.683 92 39.3936L92.3903 39.5695C92.9958 39.8982 93.5569 40.303 94.0597 40.774C94.5805 41.2594 95.1629 41.6741 95.7919 42.0075C95.9944 42.0845 96.1783 42.2036 96.3315 42.3568C96.1653 42.5977 95.9244 42.9085 95.6714 43.2409C94.2814 45.0597 93.4719 46.2089 93.9369 46.8352C94.1595 46.9517 94.4086 47.0082 94.6596 46.999C97.6926 46.999 99.3187 46.2113 101.381 45.2139C101.976 44.9248 102.585 44.6261 103.308 44.3226C104.513 43.7998 105.809 42.9663 107.182 42.0846C109.001 40.9162 110.882 39.7068 112.703 39.1214C114.204 38.6638 115.767 38.4443 117.336 38.471C119.263 38.471 121.292 38.7287 123.248 38.9793C124.708 39.1672 126.216 39.3599 127.697 39.4611C128.273 39.4948 128.806 39.5117 129.326 39.5117C130.019 39.5136 130.711 39.4774 131.4 39.4033L131.564 39.3455C132.605 38.7071 133.091 37.3363 133.561 36.0113C133.865 35.1585 134.12 34.3924 134.525 33.9058C134.549 33.8814 134.576 33.8596 134.604 33.8407C134.623 33.8302 134.645 33.8264 134.667 33.8299C134.688 33.8333 134.708 33.844 134.722 33.86C134.727 33.8725 134.727 33.8861 134.722 33.8986C134.481 39.0805 132.393 42.3688 130.285 45.2934L128.854 46.7943C128.854 46.7943 130.824 46.7943 131.947 46.3606C136.042 45.1368 139.136 42.4387 141.386 38.1361C141.94 37.0318 142.436 35.8987 142.87 34.7417C142.908 34.6454 143.265 34.4671 143.229 34.9658C143.229 35.1127 143.209 35.2765 143.197 35.4476C143.197 35.5488 143.183 35.6524 143.178 35.756C143.118 36.4787 142.937 38.006 142.937 38.006L144.202 37.3291C147.252 35.4018 149.603 31.5136 151.386 25.4644C152.13 22.9446 152.672 20.4415 153.152 18.2372C153.725 15.5873 154.219 13.3155 154.785 12.4338C155.674 11.051 157.03 10.1163 158.343 9.20807C158.524 9.08521 158.702 8.96717 158.878 8.83708C160.531 7.67832 162.171 6.34129 162.53 3.84791V3.7925C162.805 1.93271 162.581 1.47017 162.34 1.2413Z" fill="#231F20"/>
</svg>
