<svg width="250" height="80" viewBox="0 0 250 80" fill="none" xmlns="http://www.w3.org/2000/svg">
<rect width="250" height="80" fill="white"/>
<path d="M184.272 1.40917C183.949 1.13431 183.536 0.988785 183.112 1.00068C181.952 1.00068 180.457 1.78498 179.656 2.22615L179.333 2.38955C177.984 3.04358 176.514 3.41342 175.015 3.47614C173.479 3.52516 172.156 3.61503 170.432 3.79068C160.22 4.8446 155.665 12.6713 151.278 20.2407C148.892 24.3583 146.425 28.6148 143.043 31.9114C142.34 32.589 141.595 33.2207 140.812 33.8027C137.311 36.413 132.916 38.2553 129.481 39.5706C126.184 40.8288 122.593 41.9603 119.117 43.0551C115.939 44.0559 112.933 44.9995 110.171 46.0289C108.925 46.4905 107.867 46.8459 106.932 47.1563C104.42 47.9733 102.602 48.5983 99.9548 50.4243C98.9213 51.131 97.8837 51.8949 97.177 52.4667C95.0727 54.1448 93.2113 56.1065 91.646 58.2959C90.2982 60.3178 88.7415 62.1922 87.0014 63.8882C86.4459 64.4356 85.4492 64.7052 83.9663 64.7052C82.2221 64.7052 80.1143 64.3457 77.8757 63.9658C75.6372 63.5859 73.1944 63.1488 71.1519 63.1488C69.4893 63.1488 68.223 63.4185 67.2712 63.9658C67.2712 63.9658 65.6781 64.8972 65 66.1023L65.6618 66.4004C66.6886 66.9579 67.6399 67.6442 68.4926 68.4429C69.3757 69.2659 70.3631 69.9691 71.4297 70.5344C71.7731 70.665 72.0849 70.8669 72.3447 71.1267C72.0628 71.5352 71.6544 72.0622 71.2254 72.6259C68.8684 75.71 67.4959 77.6585 68.2843 78.7206C68.6617 78.9181 69.0841 79.0139 69.5098 78.9984C74.6527 78.9984 77.41 77.6626 80.9067 75.9715C81.9157 75.4813 82.9492 74.9747 84.1747 74.46C86.2171 73.5736 88.4148 72.1602 90.7432 70.6651C93.8274 68.6839 97.0177 66.6333 100.106 65.6407C102.651 64.8647 105.301 64.4925 107.961 64.5377C111.229 64.5377 114.669 64.9748 117.986 65.3996C120.461 65.7183 123.018 66.0451 125.531 66.2166C126.507 66.2738 127.41 66.3024 128.292 66.3024C129.467 66.3056 130.641 66.2443 131.809 66.1186L132.087 66.0206C133.852 64.938 134.677 62.6137 135.473 60.367C135.988 58.9209 136.421 57.6219 137.107 56.7968C137.148 56.7554 137.193 56.7185 137.242 56.6865C137.274 56.6686 137.311 56.6621 137.348 56.668C137.384 56.6739 137.417 56.692 137.442 56.7192C137.449 56.7404 137.449 56.7633 137.442 56.7845C137.034 65.5712 133.492 71.1471 129.918 76.1063L127.491 78.6512C127.491 78.6512 130.833 78.6512 132.736 77.9159C139.681 75.8407 144.926 71.2656 148.741 63.9699C149.682 62.0974 150.521 60.1761 151.257 58.2142C151.323 58.0508 151.927 57.7486 151.866 58.5941C151.866 58.8433 151.833 59.1211 151.813 59.4111C151.813 59.5827 151.788 59.7584 151.78 59.934C151.678 61.1595 151.372 63.7493 151.372 63.7493L153.516 62.6015C158.688 59.3335 162.675 52.7404 165.698 42.4832C166.96 38.2103 167.879 33.9661 168.692 30.2284C169.664 25.7349 170.502 21.8829 171.462 20.3878C172.969 18.043 175.269 16.4581 177.495 14.918C177.801 14.7097 178.104 14.5095 178.402 14.289C181.204 12.3241 183.986 10.057 184.595 5.82907V5.73511C185.06 2.58154 184.68 1.79724 184.272 1.40917Z" fill="#231F20"/>
</svg>
