<svg width="304" height="135" viewBox="0 0 304 135" fill="none" xmlns="http://www.w3.org/2000/svg">
<path d="M250.786 3.68195C250.248 3.22385 249.559 2.98131 248.853 3.00113C246.919 3.00113 244.428 4.3083 243.093 5.04359L242.555 5.31592C240.306 6.40596 237.856 7.02236 235.359 7.12691C232.799 7.20861 230.593 7.35839 227.72 7.65114C210.7 9.40766 203.108 22.4522 195.796 35.0678C191.82 41.9305 187.708 49.0247 182.071 54.5189C180.901 55.6483 179.659 56.7012 178.354 57.6711C172.519 62.0216 165.193 65.0921 159.468 67.2844C153.974 69.3813 147.989 71.2672 142.195 73.0918C136.899 74.7598 131.888 76.3325 127.285 78.0481C125.209 78.8175 123.445 79.4098 121.886 79.9272C117.699 81.2889 114.67 82.3305 110.258 85.3738C108.535 86.5516 106.806 87.8248 105.628 88.7779C102.121 91.5746 99.0189 94.8442 96.41 98.4932C94.1637 101.863 91.5691 104.987 88.6691 107.814C87.7432 108.726 86.082 109.175 83.6106 109.175C80.7035 109.175 77.1904 108.576 73.4595 107.943C69.7286 107.31 65.6573 106.581 62.2532 106.581C59.4822 106.581 57.3717 107.031 55.7854 107.943C55.7854 107.943 53.1302 109.495 52 111.504L53.1029 112.001C54.8143 112.93 56.3998 114.074 57.821 115.405C59.2928 116.777 60.9386 117.949 62.7161 118.891C63.2885 119.108 63.8082 119.445 64.2412 119.878C63.7714 120.559 63.0906 121.437 62.3757 122.376C58.4474 127.517 56.1598 130.764 57.4738 132.534C58.1028 132.864 58.8068 133.023 59.5163 132.997C68.0878 132.997 72.6834 130.771 78.5112 127.952C80.1928 127.135 81.9153 126.291 83.9578 125.433C87.3619 123.956 91.0247 121.6 94.9054 119.109C100.046 115.807 105.363 112.389 110.51 110.734C114.751 109.441 119.169 108.821 123.602 108.896C129.049 108.896 134.781 109.625 140.309 110.333C144.435 110.864 148.697 111.408 152.884 111.694C154.511 111.79 156.016 111.837 157.487 111.837C159.445 111.843 161.402 111.74 163.348 111.531L163.811 111.368C166.753 109.563 168.128 105.69 169.455 101.945C170.313 99.5349 171.035 97.3699 172.179 95.9946C172.247 95.9257 172.322 95.8641 172.403 95.8108C172.457 95.781 172.519 95.7701 172.58 95.78C172.64 95.7899 172.696 95.8199 172.737 95.8653C172.749 95.9006 172.749 95.9389 172.737 95.9742C172.056 110.619 166.153 119.912 160.196 128.177L156.152 132.419C156.152 132.419 161.721 132.419 164.894 131.193C176.468 127.735 185.21 120.109 191.569 107.95C193.136 104.829 194.536 101.627 195.762 98.3571C195.871 98.0847 196.879 97.5809 196.777 98.9902C196.777 99.4055 196.722 99.8685 196.688 100.352C196.688 100.638 196.647 100.931 196.634 101.223C196.464 103.266 195.953 107.582 195.953 107.582L199.527 105.669C208.147 100.223 214.791 89.2341 219.829 72.1386C221.933 65.0172 223.465 57.9435 224.82 51.7139C226.44 44.2249 227.836 37.8048 229.436 35.3129C231.948 31.405 235.781 28.7634 239.492 26.1967C240.002 25.8495 240.506 25.5159 241.003 25.1483C245.673 21.8735 250.31 18.095 251.324 11.0484V10.8919C252.1 5.63591 251.467 4.32873 250.786 3.68195Z" fill="#231F20"/>
</svg>
