<svg width="288" height="288" viewBox="0 0 288 288" fill="none" xmlns="http://www.w3.org/2000/svg">
<rect width="288" height="288" fill="white"/>
<path d="M279.768 54.9392C279.026 54.3083 278.078 53.9743 277.105 54.0015C274.442 54.0015 271.01 55.8018 269.173 56.8144L268.432 57.1895C265.334 58.6907 261.961 59.5396 258.521 59.6836C254.996 59.7961 251.958 60.0023 248.001 60.4055C224.56 62.8246 214.106 80.7895 204.036 98.1637C198.56 107.615 192.897 117.385 185.133 124.952C183.522 126.507 181.812 127.957 180.014 129.293C171.978 135.284 161.89 139.513 154.004 142.532C146.437 145.42 138.196 148.017 130.217 150.53C122.922 152.827 116.021 154.993 109.683 157.356C106.823 158.415 104.394 159.231 102.247 159.944C96.4808 161.819 92.3084 163.254 86.2326 167.445C83.8604 169.067 81.4788 170.82 79.8567 172.133C75.0267 175.985 70.7542 180.487 67.1613 185.513C64.0676 190.154 60.4944 194.456 56.5005 198.349C55.2253 199.605 52.9375 200.224 49.5339 200.224C45.5303 200.224 40.6921 199.399 35.5539 198.527C30.4158 197.655 24.8088 196.652 20.1206 196.652C16.3045 196.652 13.3979 197.271 11.2132 198.527C11.2132 198.527 7.55646 200.665 6 203.431L7.51895 204.115C9.87579 205.395 12.0594 206.97 14.0167 208.803C16.0435 210.692 18.3102 212.307 20.7582 213.604C21.5464 213.904 22.2622 214.367 22.8585 214.964C22.2115 215.901 21.2739 217.111 20.2894 218.405C14.8793 225.484 11.7289 229.956 13.5385 232.394C14.4048 232.847 15.3743 233.067 16.3514 233.032C28.1561 233.032 34.485 229.966 42.5111 226.084C44.827 224.959 47.1992 223.796 50.0121 222.615C54.7002 220.58 59.7447 217.336 65.0891 213.904C72.1682 209.357 79.491 204.65 86.5795 202.371C92.4204 200.59 98.5045 199.736 104.61 199.84C112.111 199.84 120.006 200.843 127.619 201.818C133.301 202.549 139.171 203.3 144.937 203.693C147.178 203.825 149.25 203.89 151.276 203.89C153.972 203.898 156.667 203.757 159.349 203.468L159.986 203.243C164.037 200.759 165.931 195.424 167.759 190.267C168.94 186.947 169.934 183.966 171.51 182.072C171.604 181.977 171.707 181.892 171.819 181.819C171.893 181.778 171.978 181.763 172.062 181.776C172.145 181.79 172.221 181.831 172.278 181.894C172.295 181.942 172.295 181.995 172.278 182.044C171.341 202.212 163.212 215.011 155.007 226.393L149.438 232.235C149.438 232.235 157.108 232.235 161.477 230.547C177.417 225.784 189.456 215.282 198.213 198.536C200.372 194.238 202.3 189.828 203.989 185.325C204.139 184.95 205.527 184.256 205.386 186.197C205.386 186.769 205.311 187.407 205.264 188.073C205.264 188.466 205.208 188.87 205.189 189.273C204.955 192.086 204.251 198.03 204.251 198.03L209.174 195.395C221.044 187.894 230.195 172.761 237.134 149.217C240.031 139.41 242.141 129.668 244.007 121.089C246.238 110.775 248.16 101.933 250.364 98.5012C253.824 93.1193 259.102 89.4813 264.213 85.9464C264.916 85.4682 265.61 85.0088 266.294 84.5025C272.726 79.9925 279.111 74.7887 280.508 65.0843V64.8686C281.577 57.6302 280.705 55.8299 279.768 54.9392Z" fill="#231F20"/>
</svg>
